<mxfile host="app.diagrams.net" modified="2024-06-29T08:56:26.745Z" agent="Mozilla/5.0 (Macintosh; Intel Mac OS X 10_15_7) AppleWebKit/537.36 (KHTML, like Gecko) Chrome/126.0.0.0 Safari/537.36 Edg/126.0.0.0" etag="PH4lkHFfAqPWUVKmCbt-" version="24.6.4" type="github">
  <diagram id="prtHgNgQTEPvFCAcTncT" name="Page-1">
    <mxGraphModel dx="1803" dy="1094" grid="1" gridSize="10" guides="1" tooltips="1" connect="1" arrows="1" fold="1" page="1" pageScale="1" pageWidth="827" pageHeight="1169" math="0" shadow="0">
      <root>
        <mxCell id="0" />
        <mxCell id="1" parent="0" />
        <mxCell id="-heLOFPa16gDdDhZMKge-1" value="&lt;font style=&quot;font-size: 14px;&quot;&gt;api贷后整体业务流程&lt;/font&gt;" style="swimlane;childLayout=stackLayout;resizeParent=1;resizeParentMax=0;startSize=20;html=1;labelBackgroundColor=none;fillColor=#B2C9AB;strokeColor=#788AA3;fontColor=#46495D;" vertex="1" parent="1">
          <mxGeometry x="150" y="130" width="2120" height="1220" as="geometry" />
        </mxCell>
        <mxCell id="-heLOFPa16gDdDhZMKge-2" value="ugchanprod/api-gateway" style="swimlane;startSize=20;html=1;labelBackgroundColor=none;fillColor=#B2C9AB;strokeColor=#788AA3;fontColor=#46495D;" vertex="1" parent="-heLOFPa16gDdDhZMKge-1">
          <mxGeometry y="20" width="300" height="1200" as="geometry" />
        </mxCell>
        <mxCell id="-heLOFPa16gDdDhZMKge-3" value="api产品中心" style="swimlane;startSize=20;html=1;labelBackgroundColor=none;fillColor=#B2C9AB;strokeColor=#788AA3;fontColor=#46495D;" vertex="1" parent="-heLOFPa16gDdDhZMKge-1">
          <mxGeometry x="300" y="20" width="420" height="1200" as="geometry" />
        </mxCell>
        <mxCell id="-heLOFPa16gDdDhZMKge-4" value="还款引擎" style="swimlane;startSize=20;html=1;labelBackgroundColor=none;fillColor=#B2C9AB;strokeColor=#788AA3;fontColor=#46495D;" vertex="1" parent="-heLOFPa16gDdDhZMKge-1">
          <mxGeometry x="720" y="20" width="350" height="1200" as="geometry" />
        </mxCell>
        <mxCell id="-heLOFPa16gDdDhZMKge-5" value="账务系统" style="swimlane;startSize=20;html=1;labelBackgroundColor=none;fillColor=#B2C9AB;strokeColor=#788AA3;fontColor=#46495D;" vertex="1" parent="-heLOFPa16gDdDhZMKge-1">
          <mxGeometry x="1070" y="20" width="350" height="1200" as="geometry" />
        </mxCell>
        <mxCell id="-heLOFPa16gDdDhZMKge-6" value="支付系统" style="swimlane;startSize=20;html=1;labelBackgroundColor=none;fillColor=#B2C9AB;strokeColor=#788AA3;fontColor=#46495D;" vertex="1" parent="-heLOFPa16gDdDhZMKge-1">
          <mxGeometry x="1420" y="20" width="350" height="1200" as="geometry" />
        </mxCell>
        <mxCell id="-heLOFPa16gDdDhZMKge-7" value="资金系统" style="swimlane;startSize=20;html=1;labelBackgroundColor=none;fillColor=#B2C9AB;strokeColor=#788AA3;fontColor=#46495D;" vertex="1" parent="-heLOFPa16gDdDhZMKge-1">
          <mxGeometry x="1770" y="20" width="350" height="1200" as="geometry" />
        </mxCell>
      </root>
    </mxGraphModel>
  </diagram>
</mxfile>
